<mxfile host="app.diagrams.net" agent="Mozilla/5.0 (Windows NT 10.0; Win64; x64) AppleWebKit/537.36 (KHTML, like Gecko) Chrome/133.0.0.0 Safari/537.36 OPR/118.0.0.0 (Edition std-1)" version="27.1.1">
  <diagram name="Page-1" id="MMRG923M680wyyKBxc3z">
    <mxGraphModel dx="535" dy="802" grid="1" gridSize="10" guides="1" tooltips="1" connect="1" arrows="1" fold="1" page="1" pageScale="1" pageWidth="850" pageHeight="1100" math="0" shadow="0">
      <root>
        <mxCell id="0" />
        <mxCell id="1" parent="0" />
        <mxCell id="BT49OxJVoO9QK6D2aW4S-1" style="edgeStyle=orthogonalEdgeStyle;rounded=0;orthogonalLoop=1;jettySize=auto;html=1;entryX=0.5;entryY=0;entryDx=0;entryDy=0;" edge="1" parent="1" source="BT49OxJVoO9QK6D2aW4S-2" target="BT49OxJVoO9QK6D2aW4S-5">
          <mxGeometry relative="1" as="geometry">
            <mxPoint x="1280.01" y="840" as="targetPoint" />
          </mxGeometry>
        </mxCell>
        <mxCell id="BT49OxJVoO9QK6D2aW4S-2" value="InÃ­cio&lt;br&gt;(Mouse Click)" style="ellipse;whiteSpace=wrap;html=1;" vertex="1" parent="1">
          <mxGeometry x="1199.51" y="730" width="160" height="50" as="geometry" />
        </mxCell>
        <mxCell id="BT49OxJVoO9QK6D2aW4S-3" style="edgeStyle=orthogonalEdgeStyle;rounded=0;orthogonalLoop=1;jettySize=auto;html=1;exitX=0.5;exitY=1;exitDx=0;exitDy=0;entryX=0.5;entryY=0;entryDx=0;entryDy=0;" edge="1" parent="1" source="BT49OxJVoO9QK6D2aW4S-5" target="BT49OxJVoO9QK6D2aW4S-8">
          <mxGeometry relative="1" as="geometry">
            <mxPoint x="1280.01" y="990" as="targetPoint" />
          </mxGeometry>
        </mxCell>
        <mxCell id="BT49OxJVoO9QK6D2aW4S-4" value="Sim" style="edgeLabel;html=1;align=center;verticalAlign=middle;resizable=0;points=[];" vertex="1" connectable="0" parent="BT49OxJVoO9QK6D2aW4S-3">
          <mxGeometry x="-0.2295" y="1" relative="1" as="geometry">
            <mxPoint as="offset" />
          </mxGeometry>
        </mxCell>
        <mxCell id="BT49OxJVoO9QK6D2aW4S-5" value="btn_losango.BackColor == Color.LightGray" style="rhombus;whiteSpace=wrap;html=1;" vertex="1" parent="1">
          <mxGeometry x="1140" y="807.5" width="279.01" height="92.69" as="geometry" />
        </mxCell>
        <mxCell id="BT49OxJVoO9QK6D2aW4S-6" value="" style="edgeStyle=orthogonalEdgeStyle;rounded=0;orthogonalLoop=1;jettySize=auto;html=1;" edge="1" parent="1" source="BT49OxJVoO9QK6D2aW4S-8" target="BT49OxJVoO9QK6D2aW4S-12">
          <mxGeometry relative="1" as="geometry" />
        </mxCell>
        <mxCell id="BT49OxJVoO9QK6D2aW4S-7" style="edgeStyle=orthogonalEdgeStyle;rounded=0;orthogonalLoop=1;jettySize=auto;html=1;exitX=0;exitY=0.5;exitDx=0;exitDy=0;" edge="1" parent="1" source="BT49OxJVoO9QK6D2aW4S-8">
          <mxGeometry relative="1" as="geometry">
            <mxPoint x="1345.01" y="1270" as="targetPoint" />
            <Array as="points">
              <mxPoint x="1150.01" y="975" />
              <mxPoint x="1150.01" y="1310" />
              <mxPoint x="1345.01" y="1310" />
            </Array>
          </mxGeometry>
        </mxCell>
        <mxCell id="BT49OxJVoO9QK6D2aW4S-8" value="i &amp;lt;= vetorLosango.length&lt;br&gt;i += 2" style="shape=hexagon;perimeter=hexagonPerimeter2;whiteSpace=wrap;html=1;fixedSize=1;" vertex="1" parent="1">
          <mxGeometry x="1170.01" y="950" width="220" height="50" as="geometry" />
        </mxCell>
        <mxCell id="BT49OxJVoO9QK6D2aW4S-9" style="edgeStyle=orthogonalEdgeStyle;rounded=0;orthogonalLoop=1;jettySize=auto;html=1;exitX=1;exitY=0.5;exitDx=0;exitDy=0;" edge="1" parent="1" source="BT49OxJVoO9QK6D2aW4S-12">
          <mxGeometry relative="1" as="geometry">
            <mxPoint x="1280.01" y="930" as="targetPoint" />
            <Array as="points">
              <mxPoint x="1413.01" y="1080" />
              <mxPoint x="1413.01" y="930" />
            </Array>
          </mxGeometry>
        </mxCell>
        <mxCell id="BT49OxJVoO9QK6D2aW4S-10" value="" style="edgeStyle=orthogonalEdgeStyle;rounded=0;orthogonalLoop=1;jettySize=auto;html=1;" edge="1" parent="1" source="BT49OxJVoO9QK6D2aW4S-12" target="BT49OxJVoO9QK6D2aW4S-14">
          <mxGeometry relative="1" as="geometry" />
        </mxCell>
        <mxCell id="BT49OxJVoO9QK6D2aW4S-11" value="Sim" style="edgeLabel;html=1;align=center;verticalAlign=middle;resizable=0;points=[];" vertex="1" connectable="0" parent="BT49OxJVoO9QK6D2aW4S-10">
          <mxGeometry x="-0.504" y="-1" relative="1" as="geometry">
            <mxPoint as="offset" />
          </mxGeometry>
        </mxCell>
        <mxCell id="BT49OxJVoO9QK6D2aW4S-12" value="vetorLosango[i] == 0" style="rhombus;whiteSpace=wrap;html=1;" vertex="1" parent="1">
          <mxGeometry x="1194.2" y="1040" width="170.62" height="80" as="geometry" />
        </mxCell>
        <mxCell id="BT49OxJVoO9QK6D2aW4S-13" style="edgeStyle=orthogonalEdgeStyle;rounded=0;orthogonalLoop=1;jettySize=auto;html=1;entryX=0.5;entryY=0;entryDx=0;entryDy=0;" edge="1" parent="1" source="BT49OxJVoO9QK6D2aW4S-14">
          <mxGeometry relative="1" as="geometry">
            <mxPoint x="1280.0200000000002" y="1250" as="targetPoint" />
          </mxGeometry>
        </mxCell>
        <mxCell id="BT49OxJVoO9QK6D2aW4S-14" value="vetorLosango[i] = Mouse.X&lt;br&gt;vetorLosango[i+ 1] = Mouse.Y" style="whiteSpace=wrap;html=1;" vertex="1" parent="1">
          <mxGeometry x="1181.06" y="1160" width="197.91" height="60" as="geometry" />
        </mxCell>
        <mxCell id="BT49OxJVoO9QK6D2aW4S-15" style="edgeStyle=orthogonalEdgeStyle;rounded=0;orthogonalLoop=1;jettySize=auto;html=1;entryX=0.5;entryY=0;entryDx=0;entryDy=0;" edge="1" parent="1" source="BT49OxJVoO9QK6D2aW4S-17" target="BT49OxJVoO9QK6D2aW4S-21">
          <mxGeometry relative="1" as="geometry" />
        </mxCell>
        <mxCell id="BT49OxJVoO9QK6D2aW4S-16" value="Sim" style="edgeLabel;html=1;align=center;verticalAlign=middle;resizable=0;points=[];" vertex="1" connectable="0" parent="BT49OxJVoO9QK6D2aW4S-15">
          <mxGeometry x="-0.5501" y="1" relative="1" as="geometry">
            <mxPoint x="-1" y="11" as="offset" />
          </mxGeometry>
        </mxCell>
        <mxCell id="BT49OxJVoO9QK6D2aW4S-17" value="vetorLosango[7] != 0" style="rhombus;whiteSpace=wrap;html=1;rounded=0;" vertex="1" parent="1">
          <mxGeometry x="1344.89" y="1304" width="145.12" height="66" as="geometry" />
        </mxCell>
        <mxCell id="BT49OxJVoO9QK6D2aW4S-18" style="edgeStyle=orthogonalEdgeStyle;rounded=0;orthogonalLoop=1;jettySize=auto;html=1;exitX=1;exitY=0.5;exitDx=0;exitDy=0;entryX=0.5;entryY=0;entryDx=0;entryDy=0;" edge="1" parent="1" source="BT49OxJVoO9QK6D2aW4S-19" target="BT49OxJVoO9QK6D2aW4S-17">
          <mxGeometry relative="1" as="geometry" />
        </mxCell>
        <mxCell id="BT49OxJVoO9QK6D2aW4S-19" value="break" style="rhombus;whiteSpace=wrap;html=1;" vertex="1" parent="1">
          <mxGeometry x="1235.02" y="1250" width="90" height="45" as="geometry" />
        </mxCell>
        <mxCell id="BT49OxJVoO9QK6D2aW4S-20" style="edgeStyle=orthogonalEdgeStyle;rounded=0;orthogonalLoop=1;jettySize=auto;html=1;" edge="1" parent="1" source="BT49OxJVoO9QK6D2aW4S-21">
          <mxGeometry relative="1" as="geometry">
            <mxPoint x="1417.45" y="1470" as="targetPoint" />
          </mxGeometry>
        </mxCell>
        <mxCell id="BT49OxJVoO9QK6D2aW4S-21" value="cor = verificarCor()" style="rounded=0;whiteSpace=wrap;html=1;" vertex="1" parent="1">
          <mxGeometry x="1362.45" y="1410" width="110" height="30" as="geometry" />
        </mxCell>
        <mxCell id="BT49OxJVoO9QK6D2aW4S-22" value="" style="edgeStyle=orthogonalEdgeStyle;rounded=0;orthogonalLoop=1;jettySize=auto;html=1;" edge="1" parent="1" source="BT49OxJVoO9QK6D2aW4S-24" target="BT49OxJVoO9QK6D2aW4S-26">
          <mxGeometry relative="1" as="geometry" />
        </mxCell>
        <mxCell id="BT49OxJVoO9QK6D2aW4S-23" value="Sim" style="edgeLabel;html=1;align=center;verticalAlign=middle;resizable=0;points=[];" vertex="1" connectable="0" parent="BT49OxJVoO9QK6D2aW4S-22">
          <mxGeometry x="-0.1901" y="1" relative="1" as="geometry">
            <mxPoint as="offset" />
          </mxGeometry>
        </mxCell>
        <mxCell id="BT49OxJVoO9QK6D2aW4S-24" value="color != Color.Empty" style="rhombus;whiteSpace=wrap;html=1;rounded=0;" vertex="1" parent="1">
          <mxGeometry x="1351.8" y="1470" width="131.31" height="60" as="geometry" />
        </mxCell>
        <mxCell id="BT49OxJVoO9QK6D2aW4S-25" style="edgeStyle=orthogonalEdgeStyle;rounded=0;orthogonalLoop=1;jettySize=auto;html=1;entryX=0.5;entryY=0;entryDx=0;entryDy=0;" edge="1" parent="1" source="BT49OxJVoO9QK6D2aW4S-26" target="BT49OxJVoO9QK6D2aW4S-28">
          <mxGeometry relative="1" as="geometry" />
        </mxCell>
        <mxCell id="BT49OxJVoO9QK6D2aW4S-26" value="formas[&#39;Losangos&#39;].Add(propriedades do losango)" style="whiteSpace=wrap;html=1;rounded=0;" vertex="1" parent="1">
          <mxGeometry x="1264.66" y="1570" width="305.57" height="40" as="geometry" />
        </mxCell>
        <mxCell id="BT49OxJVoO9QK6D2aW4S-27" value="" style="edgeStyle=orthogonalEdgeStyle;rounded=0;orthogonalLoop=1;jettySize=auto;html=1;" edge="1" parent="1" source="BT49OxJVoO9QK6D2aW4S-28" target="BT49OxJVoO9QK6D2aW4S-30">
          <mxGeometry relative="1" as="geometry" />
        </mxCell>
        <mxCell id="BT49OxJVoO9QK6D2aW4S-28" value="ZerarArrays()" style="whiteSpace=wrap;html=1;rounded=0;" vertex="1" parent="1">
          <mxGeometry x="1360.71" y="1640" width="113.51" height="30" as="geometry" />
        </mxCell>
        <mxCell id="BT49OxJVoO9QK6D2aW4S-29" value="" style="edgeStyle=orthogonalEdgeStyle;rounded=0;orthogonalLoop=1;jettySize=auto;html=1;entryX=0.5;entryY=0;entryDx=0;entryDy=0;" edge="1" parent="1" source="BT49OxJVoO9QK6D2aW4S-30" target="BT49OxJVoO9QK6D2aW4S-32">
          <mxGeometry relative="1" as="geometry">
            <mxPoint x="1417.465" y="1760" as="targetPoint" />
          </mxGeometry>
        </mxCell>
        <mxCell id="BT49OxJVoO9QK6D2aW4S-30" value="Invalidate()" style="whiteSpace=wrap;html=1;rounded=0;" vertex="1" parent="1">
          <mxGeometry x="1360.71" y="1700" width="113.51" height="30" as="geometry" />
        </mxCell>
        <mxCell id="BT49OxJVoO9QK6D2aW4S-31" style="edgeStyle=orthogonalEdgeStyle;rounded=0;orthogonalLoop=1;jettySize=auto;html=1;entryX=0.5;entryY=0;entryDx=0;entryDy=0;" edge="1" parent="1" source="BT49OxJVoO9QK6D2aW4S-32" target="BT49OxJVoO9QK6D2aW4S-33">
          <mxGeometry relative="1" as="geometry" />
        </mxCell>
        <mxCell id="BT49OxJVoO9QK6D2aW4S-32" value="Entrar em Forms Paint" style="whiteSpace=wrap;html=1;rounded=0;" vertex="1" parent="1">
          <mxGeometry x="1351.8" y="1750" width="130" height="30" as="geometry" />
        </mxCell>
        <mxCell id="BT49OxJVoO9QK6D2aW4S-33" value="A" style="ellipse;whiteSpace=wrap;html=1;rounded=0;" vertex="1" parent="1">
          <mxGeometry x="1388.97" y="1820" width="55.65" height="45" as="geometry" />
        </mxCell>
        <mxCell id="BT49OxJVoO9QK6D2aW4S-34" style="edgeStyle=orthogonalEdgeStyle;rounded=0;orthogonalLoop=1;jettySize=auto;html=1;entryX=0.5;entryY=0;entryDx=0;entryDy=0;" edge="1" parent="1" source="BT49OxJVoO9QK6D2aW4S-35" target="BT49OxJVoO9QK6D2aW4S-37">
          <mxGeometry relative="1" as="geometry" />
        </mxCell>
        <mxCell id="BT49OxJVoO9QK6D2aW4S-35" value="A" style="ellipse;whiteSpace=wrap;html=1;rounded=0;" vertex="1" parent="1">
          <mxGeometry x="1806.79" y="730" width="55.65" height="45" as="geometry" />
        </mxCell>
        <mxCell id="BT49OxJVoO9QK6D2aW4S-36" style="edgeStyle=orthogonalEdgeStyle;rounded=0;orthogonalLoop=1;jettySize=auto;html=1;entryX=0.5;entryY=0;entryDx=0;entryDy=0;" edge="1" parent="1" source="BT49OxJVoO9QK6D2aW4S-37" target="BT49OxJVoO9QK6D2aW4S-39">
          <mxGeometry relative="1" as="geometry" />
        </mxCell>
        <mxCell id="BT49OxJVoO9QK6D2aW4S-37" value="DesenharTudo(e)" style="whiteSpace=wrap;html=1;rounded=0;" vertex="1" parent="1">
          <mxGeometry x="1777.99" y="807.5" width="113.25" height="50" as="geometry" />
        </mxCell>
        <mxCell id="BT49OxJVoO9QK6D2aW4S-38" style="edgeStyle=orthogonalEdgeStyle;rounded=0;orthogonalLoop=1;jettySize=auto;html=1;entryX=0.5;entryY=0;entryDx=0;entryDy=0;" edge="1" parent="1" source="BT49OxJVoO9QK6D2aW4S-39" target="BT49OxJVoO9QK6D2aW4S-42">
          <mxGeometry relative="1" as="geometry" />
        </mxCell>
        <mxCell id="BT49OxJVoO9QK6D2aW4S-39" value="Entrar em DesenharTudo()" style="whiteSpace=wrap;html=1;rounded=0;" vertex="1" parent="1">
          <mxGeometry x="1777.99" y="887.5" width="113.25" height="50" as="geometry" />
        </mxCell>
        <mxCell id="BT49OxJVoO9QK6D2aW4S-40" style="edgeStyle=orthogonalEdgeStyle;rounded=0;orthogonalLoop=1;jettySize=auto;html=1;entryX=0.5;entryY=0;entryDx=0;entryDy=0;" edge="1" parent="1" source="BT49OxJVoO9QK6D2aW4S-42" target="BT49OxJVoO9QK6D2aW4S-44">
          <mxGeometry relative="1" as="geometry" />
        </mxCell>
        <mxCell id="BT49OxJVoO9QK6D2aW4S-41" style="edgeStyle=orthogonalEdgeStyle;rounded=0;orthogonalLoop=1;jettySize=auto;html=1;entryX=0;entryY=0.5;entryDx=0;entryDy=0;" edge="1" parent="1" source="BT49OxJVoO9QK6D2aW4S-42" target="BT49OxJVoO9QK6D2aW4S-52">
          <mxGeometry relative="1" as="geometry">
            <Array as="points">
              <mxPoint x="1590.01" y="1023" />
              <mxPoint x="1590.01" y="1785" />
            </Array>
          </mxGeometry>
        </mxCell>
        <mxCell id="BT49OxJVoO9QK6D2aW4S-42" value="foreach var(pos, pen) in formas[&quot;Losangos&quot;]" style="shape=hexagon;perimeter=hexagonPerimeter2;whiteSpace=wrap;html=1;fixedSize=1;" vertex="1" parent="1">
          <mxGeometry x="1710.22" y="997.5" width="248.8" height="50" as="geometry" />
        </mxCell>
        <mxCell id="BT49OxJVoO9QK6D2aW4S-43" style="edgeStyle=orthogonalEdgeStyle;rounded=0;orthogonalLoop=1;jettySize=auto;html=1;entryX=0.5;entryY=0;entryDx=0;entryDy=0;" edge="1" parent="1" source="BT49OxJVoO9QK6D2aW4S-44" target="BT49OxJVoO9QK6D2aW4S-47">
          <mxGeometry relative="1" as="geometry" />
        </mxCell>
        <mxCell id="BT49OxJVoO9QK6D2aW4S-44" value="DesenharLosango(var - propriedades do losango)" style="whiteSpace=wrap;html=1;rounded=0;" vertex="1" parent="1">
          <mxGeometry x="1690.23" y="1082.5" width="288.79" height="50" as="geometry" />
        </mxCell>
        <mxCell id="BT49OxJVoO9QK6D2aW4S-45" value="&lt;b&gt;&lt;font style=&quot;font-size: 10px;&quot;&gt;Primitiva&lt;/font&gt;&lt;/b&gt;" style="text;html=1;align=center;verticalAlign=middle;whiteSpace=wrap;rounded=0;" vertex="1" parent="1">
          <mxGeometry x="1690.23" y="1062.5" width="60" height="20" as="geometry" />
        </mxCell>
        <mxCell id="BT49OxJVoO9QK6D2aW4S-46" style="edgeStyle=orthogonalEdgeStyle;rounded=0;orthogonalLoop=1;jettySize=auto;html=1;entryX=0.5;entryY=0;entryDx=0;entryDy=0;" edge="1" parent="1" source="BT49OxJVoO9QK6D2aW4S-47">
          <mxGeometry relative="1" as="geometry">
            <mxPoint x="1834.615" y="1250" as="targetPoint" />
            <Array as="points">
              <mxPoint x="1835.01" y="1250" />
              <mxPoint x="1835.01" y="1250" />
            </Array>
          </mxGeometry>
        </mxCell>
        <mxCell id="BT49OxJVoO9QK6D2aW4S-47" value="Entra em DesenharLosango()" style="rounded=0;whiteSpace=wrap;html=1;" vertex="1" parent="1">
          <mxGeometry x="1746.04" y="1167.5" width="177.17" height="40" as="geometry" />
        </mxCell>
        <mxCell id="BT49OxJVoO9QK6D2aW4S-48" value="" style="edgeStyle=orthogonalEdgeStyle;rounded=0;orthogonalLoop=1;jettySize=auto;html=1;" edge="1" parent="1" source="BT49OxJVoO9QK6D2aW4S-49" target="BT49OxJVoO9QK6D2aW4S-59">
          <mxGeometry relative="1" as="geometry" />
        </mxCell>
        <mxCell id="BT49OxJVoO9QK6D2aW4S-49" value="Entra em DesenharReta()" style="rounded=0;whiteSpace=wrap;html=1;" vertex="1" parent="1">
          <mxGeometry x="1746.05" y="1390" width="177.17" height="40" as="geometry" />
        </mxCell>
        <mxCell id="BT49OxJVoO9QK6D2aW4S-50" style="edgeStyle=orthogonalEdgeStyle;rounded=0;orthogonalLoop=1;jettySize=auto;html=1;exitX=1;exitY=0.5;exitDx=0;exitDy=0;" edge="1" parent="1" source="BT49OxJVoO9QK6D2aW4S-51">
          <mxGeometry relative="1" as="geometry">
            <mxPoint x="1835.01" y="967.5" as="targetPoint" />
            <Array as="points">
              <mxPoint x="2090.01" y="1700" />
              <mxPoint x="2090.01" y="968" />
            </Array>
            <mxPoint x="1990.01" y="1580" as="sourcePoint" />
          </mxGeometry>
        </mxCell>
        <mxCell id="BT49OxJVoO9QK6D2aW4S-51" value="e.Graphics.DrawLine(caneta, x0, y0, x1, y1)" style="rounded=0;whiteSpace=wrap;html=1;" vertex="1" parent="1">
          <mxGeometry x="1714.64" y="1680" width="240" height="40" as="geometry" />
        </mxCell>
        <mxCell id="BT49OxJVoO9QK6D2aW4S-52" value="Fim" style="ellipse;whiteSpace=wrap;html=1;" vertex="1" parent="1">
          <mxGeometry x="1754.64" y="1760" width="160" height="50" as="geometry" />
        </mxCell>
        <mxCell id="BT49OxJVoO9QK6D2aW4S-53" style="edgeStyle=orthogonalEdgeStyle;rounded=0;orthogonalLoop=1;jettySize=auto;html=1;entryX=0.5;entryY=0;entryDx=0;entryDy=0;" edge="1" parent="1" source="BT49OxJVoO9QK6D2aW4S-55" target="BT49OxJVoO9QK6D2aW4S-57">
          <mxGeometry relative="1" as="geometry" />
        </mxCell>
        <mxCell id="BT49OxJVoO9QK6D2aW4S-54" value="" style="edgeStyle=orthogonalEdgeStyle;rounded=0;orthogonalLoop=1;jettySize=auto;html=1;entryX=0;entryY=0.5;entryDx=0;entryDy=0;" edge="1" parent="1" source="BT49OxJVoO9QK6D2aW4S-55" target="BT49OxJVoO9QK6D2aW4S-61">
          <mxGeometry relative="1" as="geometry">
            <mxPoint x="1640.01" y="1550" as="targetPoint" />
            <Array as="points">
              <mxPoint x="1610.01" y="1275" />
              <mxPoint x="1610.01" y="1540" />
            </Array>
          </mxGeometry>
        </mxCell>
        <mxCell id="BT49OxJVoO9QK6D2aW4S-55" value="i = 0; i &amp;lt; 5; i += 2" style="shape=hexagon;perimeter=hexagonPerimeter2;whiteSpace=wrap;html=1;fixedSize=1;" vertex="1" parent="1">
          <mxGeometry x="1724.6200000000001" y="1250" width="220" height="50" as="geometry" />
        </mxCell>
        <mxCell id="BT49OxJVoO9QK6D2aW4S-56" style="edgeStyle=orthogonalEdgeStyle;rounded=0;orthogonalLoop=1;jettySize=auto;html=1;entryX=0.5;entryY=0;entryDx=0;entryDy=0;" edge="1" parent="1" source="BT49OxJVoO9QK6D2aW4S-57" target="BT49OxJVoO9QK6D2aW4S-49">
          <mxGeometry relative="1" as="geometry" />
        </mxCell>
        <mxCell id="BT49OxJVoO9QK6D2aW4S-57" value="DesenharReta(pontos[i], pontos[i + 1], pontos[i + 2], pontos[i + 3], caneta, e);" style="whiteSpace=wrap;html=1;" vertex="1" parent="1">
          <mxGeometry x="1624.4199999999998" y="1335" width="420.38" height="35" as="geometry" />
        </mxCell>
        <mxCell id="BT49OxJVoO9QK6D2aW4S-58" style="edgeStyle=orthogonalEdgeStyle;rounded=0;orthogonalLoop=1;jettySize=auto;html=1;exitX=1;exitY=0.5;exitDx=0;exitDy=0;" edge="1" parent="1" source="BT49OxJVoO9QK6D2aW4S-59">
          <mxGeometry relative="1" as="geometry">
            <mxPoint x="1835.01" y="1220" as="targetPoint" />
            <Array as="points">
              <mxPoint x="2070.01" y="1465" />
              <mxPoint x="2070.01" y="1220" />
              <mxPoint x="1945.01" y="1220" />
            </Array>
          </mxGeometry>
        </mxCell>
        <mxCell id="BT49OxJVoO9QK6D2aW4S-59" value="&lt;span&gt;&lt;font style=&quot;color: light-dark(rgb(0, 0, 0), rgb(255, 255, 255));&quot;&gt;&lt;br&gt;&lt;span style=&quot;font-family: Helvetica; font-size: 12px; font-style: normal; font-variant-ligatures: normal; font-variant-caps: normal; font-weight: 400; letter-spacing: normal; orphans: 2; text-align: center; text-indent: 0px; text-transform: none; widows: 2; word-spacing: 0px; -webkit-text-stroke-width: 0px; white-space: normal; text-decoration-thickness: initial; text-decoration-style: initial; text-decoration-color: initial; float: none; display: inline !important;&quot;&gt;e.Graphics.DrawLine(caneta, x0, y0, x1, y1)&lt;/span&gt;&lt;/font&gt;&lt;/span&gt;" style="whiteSpace=wrap;html=1;rounded=0;" vertex="1" parent="1">
          <mxGeometry x="1704.64" y="1460" width="260" height="30" as="geometry" />
        </mxCell>
        <mxCell id="BT49OxJVoO9QK6D2aW4S-60" style="edgeStyle=orthogonalEdgeStyle;rounded=0;orthogonalLoop=1;jettySize=auto;html=1;exitX=0.5;exitY=1;exitDx=0;exitDy=0;entryX=0.5;entryY=0;entryDx=0;entryDy=0;" edge="1" parent="1" source="BT49OxJVoO9QK6D2aW4S-61" target="BT49OxJVoO9QK6D2aW4S-63">
          <mxGeometry relative="1" as="geometry" />
        </mxCell>
        <mxCell id="BT49OxJVoO9QK6D2aW4S-61" value="DesenharReta(pontos[6], pontos[7], pontos[0], pontos[1], caneta, e);" style="whiteSpace=wrap;html=1;" vertex="1" parent="1">
          <mxGeometry x="1644.64" y="1520" width="380" height="40" as="geometry" />
        </mxCell>
        <mxCell id="BT49OxJVoO9QK6D2aW4S-62" value="" style="edgeStyle=orthogonalEdgeStyle;rounded=0;orthogonalLoop=1;jettySize=auto;html=1;" edge="1" parent="1" source="BT49OxJVoO9QK6D2aW4S-63" target="BT49OxJVoO9QK6D2aW4S-51">
          <mxGeometry relative="1" as="geometry" />
        </mxCell>
        <mxCell id="BT49OxJVoO9QK6D2aW4S-63" value="Entra em DesenharReta()" style="rounded=0;whiteSpace=wrap;html=1;" vertex="1" parent="1">
          <mxGeometry x="1746.02" y="1600" width="177.17" height="40" as="geometry" />
        </mxCell>
      </root>
    </mxGraphModel>
  </diagram>
</mxfile>
